<svg id="Layer_2" data-name="Layer 2"
     xmlns="http://www.w3.org/2000/svg" xmlns:xlink="http://www.w3.org/1999/xlink"
     viewBox="120 115 250 250"
    >
    <defs>
        <style>
            .cls-1 {
            fill: #fff;
            }

            .cls-2 {
            fill: #d8ab6a;
            }

            .cls-3 {
            clip-path: url(#clippath);
            }

            .cls-4 {
            fill: none;
            }

            .cls-5 {
            fill: #0b516d;
            }

            .cls-6 {
            fill: #414042;
            }
        </style>
        <clipPath id="clippath">
            <rect class="cls-4" width="500" height="500"/>
        </clipPath>
    </defs>
    <g id="Layer_1-2" data-name="Layer 1">
        <g class="cls-3">
            <path class="cls-5" d="M174.69,317.31c.09,0,.13,.03,.13,.1v3.01c0,.09-.04,.13-.13,.13h-8.19c-2.5,0-4.43-.58-5.82-1.75-1.38-1.16-2.07-2.79-2.07-4.87,0-1.33,.32-2.51,.95-3.53,.63-1.03,1.54-1.82,2.72-2.38,1.18-.56,2.59-.84,4.21-.84h.75v-1.32h4.06v11.45h3.38Zm-7.4,0v-6.88h-.71c-1.23,0-2.18,.3-2.84,.91-.66,.61-.99,1.48-.99,2.62,0,1.07,.32,1.9,.97,2.48,.65,.58,1.59,.87,2.81,.87h.76Zm-2.52-13.15c-.55,0-.99-.17-1.32-.52-.32-.35-.49-.82-.49-1.42s.16-1.08,.48-1.43c.32-.35,.76-.52,1.32-.52s.99,.17,1.31,.51c.32,.34,.47,.82,.47,1.44s-.16,1.09-.49,1.43c-.32,.34-.76,.51-1.29,.51m4.59,0c-.55,0-.99-.17-1.32-.52-.33-.35-.49-.82-.49-1.42s.16-1.08,.48-1.43c.32-.35,.76-.52,1.33-.52s1,.17,1.32,.52c.32,.35,.48,.82,.48,1.43s-.17,1.07-.49,1.42c-.33,.35-.76,.52-1.3,.52"/>
            <path class="cls-5" d="M174.41,320.55c-.09,0-.13-.04-.13-.13v-3.01c0-.07,.04-.11,.13-.11h4.18v-10.13h4.02v10.13h4.06c.09,0,.13,.04,.13,.11v3.01c0,.09-.04,.13-.13,.13h-12.26Zm3.61,6.75c-.55,0-.99-.17-1.32-.52-.32-.35-.49-.82-.49-1.42s.16-1.08,.48-1.43c.32-.35,.76-.52,1.32-.52s.99,.17,1.31,.51c.32,.34,.47,.82,.47,1.44s-.16,1.09-.49,1.43c-.32,.34-.76,.51-1.29,.51m4.59,0c-.55,0-.99-.17-1.32-.52-.33-.35-.49-.82-.49-1.42s.16-1.08,.48-1.43,.76-.52,1.33-.52,1,.17,1.32,.52c.32,.35,.48,.82,.48,1.43s-.16,1.07-.49,1.42-.76,.52-1.3,.52"/>
            <path class="cls-5" d="M197.3,317.31c.09,0,.13,.04,.13,.11v3.01c0,.09-.04,.13-.13,.13h-10.9c-.09,0-.13-.04-.13-.13v-3.01c0-.07,.04-.11,.13-.11h3.38v-10.13h4.02v10.13h3.51Zm-5.6,9.99c-.56,0-1.01-.17-1.33-.52-.33-.35-.49-.82-.49-1.42s.16-1.08,.48-1.43c.32-.35,.77-.52,1.34-.52s.98,.17,1.3,.51c.32,.34,.48,.82,.48,1.44s-.16,1.07-.49,1.42c-.33,.35-.76,.52-1.28,.52"/>
            <path class="cls-5" d="M197.04,320.55c-.09,0-.13-.04-.13-.13v-3.01c0-.07,.04-.11,.13-.11h4.18v-10.13h4.02v10.13h4.06c.09,0,.13,.04,.13,.11v3.01c0,.09-.04,.13-.13,.13h-12.26Zm3.61,6.75c-.55,0-.99-.17-1.32-.52-.32-.35-.49-.82-.49-1.42s.16-1.08,.48-1.43c.32-.35,.76-.52,1.32-.52s.99,.17,1.31,.51c.32,.34,.47,.82,.47,1.44s-.16,1.09-.49,1.43c-.32,.34-.76,.51-1.29,.51m4.59,0c-.55,0-.99-.17-1.32-.52-.33-.35-.49-.82-.49-1.42s.16-1.08,.48-1.43,.76-.52,1.33-.52,1,.17,1.32,.52c.32,.35,.48,.82,.48,1.43s-.16,1.07-.49,1.42-.76,.52-1.3,.52"/>
            <path class="cls-5" d="M209.02,320.55c-.09,0-.13-.04-.13-.13v-3.01c0-.07,.04-.11,.13-.11h3.38v-17.27h4.02v17.27h3.51c.09,0,.13,.04,.13,.11v3.01c0,.09-.04,.13-.13,.13h-10.9Z"/>
            <path class="cls-5" d="M219.66,320.55c-.09,0-.13-.04-.13-.13v-3.01c0-.07,.04-.11,.13-.11h3.38v-17.27h4.02v20.52h-7.4Z"/>
            <rect class="cls-5" x="232.47" y="300.03" width="4.02" height="20.52"/>
            <path class="cls-5" d="M256.85,320.81c-2.2,0-3.87-.52-5.01-1.57-1.14-1.05-1.71-2.59-1.71-4.64,0-1.4,.29-2.69,.86-3.88,.58-1.19,1.38-2.12,2.41-2.8,1.03-.67,2.21-1.01,3.53-1.01,1.22,0,2.33,.32,3.34,.98,1,.65,1.82,1.58,2.45,2.8,.63,1.22,.94,2.52,.94,3.91,0,2.14-.57,3.71-1.71,4.71-1.14,1-2.84,1.5-5.09,1.5m-2.62-15.95c-.55,0-.99-.17-1.32-.52s-.49-.82-.49-1.42,.16-1.08,.48-1.43c.32-.35,.76-.52,1.32-.52s.99,.17,1.31,.51c.32,.34,.47,.82,.47,1.44s-.16,1.09-.49,1.43c-.32,.34-.76,.51-1.29,.51m2.6,12.67c.95,0,1.65-.25,2.1-.76,.45-.51,.68-1.27,.68-2.3,0-1.16-.27-2.17-.82-3.03-.55-.86-1.21-1.29-1.99-1.29s-1.43,.42-1.97,1.25c-.54,.83-.81,1.85-.81,3.06,0,1.04,.23,1.81,.69,2.31,.46,.5,1.17,.75,2.12,.75m1.99-12.67c-.55,0-.99-.17-1.32-.52-.33-.35-.49-.82-.49-1.42s.16-1.08,.48-1.43c.32-.35,.76-.52,1.32-.52s1,.17,1.32,.52c.32,.35,.48,.82,.48,1.43s-.16,1.07-.49,1.42c-.33,.35-.76,.52-1.3,.52"/>
            <path class="cls-5" d="M267.02,298.54l1.54-.25c-.35-.18-.64-.42-.87-.73-.23-.31-.34-.68-.34-1.1,0-.77,.27-1.38,.8-1.81,.54-.43,1.26-.65,2.16-.65s1.63,.16,2.21,.49l-.54,1.37c-.46-.23-.95-.34-1.46-.34-.39,0-.7,.11-.93,.34-.24,.23-.36,.54-.36,.95,0,.28,.08,.53,.24,.74,.16,.21,.35,.37,.58,.48l.47-.08c.91-.14,1.64-.23,2.19-.28v1.57c-.64,.04-1.7,.15-3.18,.33-1.48,.18-2.32,.29-2.51,.34v-1.37Zm1.08,3.1h4.02v18.91h-4.02v-18.91Z"/>
            <path class="cls-5" d="M287.87,317.31c.09,0,.13,.04,.13,.11v3.01c0,.09-.04,.13-.13,.13h-3.51v.43c0,1.85-.51,3.33-1.54,4.42-1.02,1.09-2.39,1.63-4.11,1.63-.92,0-1.77-.11-2.54-.33-.77-.22-1.58-.61-2.43-1.19l1.62-2.62c.48,.3,.89,.51,1.26,.62,.36,.12,.8,.17,1.31,.17,.72,0,1.3-.27,1.74-.82,.44-.55,.66-1.24,.66-2.08v-13.61h4.02v10.13h3.51Z"/>
            <path class="cls-5" d="M306.24,317.31c.09,0,.13,.04,.13,.1v3.01c0,.09-.04,.13-.13,.13h-18.63c-.09,0-.13-.04-.13-.13v-3.01c0-.07,.04-.1,.13-.1h3.86c-.87-1.03-1.31-2.21-1.31-3.56,0-2.01,.69-3.61,2.08-4.79,1.39-1.18,3.32-1.77,5.8-1.77h4.81v10.13h3.38Zm-10.22-12.45c-.55,0-.99-.17-1.32-.52s-.49-.82-.49-1.42,.16-1.08,.48-1.43c.32-.35,.76-.52,1.32-.52s.99,.17,1.31,.51c.32,.34,.47,.82,.47,1.44s-.16,1.09-.49,1.43c-.32,.34-.76,.51-1.29,.51m2.82,12.45v-6.88h-.71c-1.21,0-2.15,.3-2.82,.9-.67,.6-1,1.48-1,2.63,0,1.07,.32,1.9,.97,2.48,.65,.58,1.58,.87,2.8,.87h.76Zm1.77-12.45c-.55,0-.99-.17-1.32-.52-.33-.35-.49-.82-.49-1.42s.16-1.08,.48-1.43c.32-.35,.76-.52,1.33-.52s1,.17,1.32,.52c.32,.35,.48,.82,.48,1.43s-.17,1.07-.49,1.42c-.33,.35-.76,.52-1.3,.52"/>
            <path class="cls-5" d="M309.02,317.31c-.48-1.11-.73-2.35-.73-3.72,0-.78,.13-1.63,.39-2.53,.26-.9,.59-1.68,.98-2.33,.87-.5,1.8-.88,2.78-1.15,.98-.26,1.84-.4,2.58-.4,1.23,0,2.35,.26,3.36,.79,1.01,.53,1.79,1.27,2.34,2.24,.55,.96,.83,2.08,.83,3.36,0,.98-.17,1.91-.5,2.78,.32,.35,.7,.6,1.11,.74,.42,.15,.94,.22,1.58,.22h.14c.09,0,.13,.04,.13,.11v3.01c0,.09-.04,.13-.13,.13h-.14c-.95,0-1.77-.13-2.47-.4-.7-.27-1.36-.74-1.98-1.4-.69,.6-1.47,1.05-2.36,1.35-.89,.3-1.8,.46-2.74,.46h-8.2c-.09,0-.13-.04-.13-.13v-3.01c0-.07,.04-.11,.13-.11h3.05Zm3.01-3.15c0,.92,.21,1.97,.62,3.15h1.02c1.09,0,2-.36,2.73-1.09,.73-.73,1.1-1.61,1.1-2.65,0-.96-.23-1.72-.7-2.29-.46-.57-1.08-.85-1.86-.85s-1.65,.25-2.52,.75c-.26,.95-.4,1.94-.4,2.98"/>
            <path class="cls-5" d="M323.6,320.55c-.09,0-.13-.04-.13-.13v-3.01c0-.07,.04-.11,.13-.11h3.38v-17.27h4.02v20.52h-7.4Z"/>
            <rect class="cls-5" x="336.4" y="300.03" width="4.02" height="20.52"/>
            <path class="cls-2" d="M163.18,343.23c-1.14,0-2.03-.29-2.67-.87-.63-.58-.95-1.39-.95-2.43,0-1.12,.35-2.01,1.06-2.65,.71-.64,1.66-.97,2.85-.97h.94v-.9h1.22v6.7h1.62s.07,.02,.07,.06v.99s-.02,.07-.07,.07h-4.07Zm1.23-1.12v-4.7h-.9c-.86,0-1.52,.22-1.98,.66-.47,.44-.7,1.05-.7,1.84,0,.71,.2,1.25,.6,1.63,.4,.38,.98,.56,1.72,.56h1.25Z"/>
            <path class="cls-2" d="M167.11,343.23s-.07-.02-.07-.07v-.99s.02-.05,.07-.05h1.77c-.35-.92-.53-1.73-.53-2.44,0-.85,.17-1.61,.51-2.27,.35-.29,.75-.52,1.2-.7,.45-.17,.92-.26,1.41-.26,.6,0,1.12,.13,1.57,.39,.45,.26,.8,.64,1.04,1.12,.24,.48,.36,1.03,.36,1.64,0,.75-.14,1.39-.41,1.94-.27,.54-.65,.96-1.15,1.25-.5,.29-1.06,.43-1.7,.43h-4.08Zm2.52-3.8c0,.44,.04,.88,.12,1.3,.08,.43,.22,.89,.43,1.38h1.01c.64,0,1.12-.22,1.46-.65,.34-.43,.51-1.06,.51-1.88,0-.6-.16-1.09-.49-1.47-.33-.38-.73-.57-1.2-.57-.3,0-.6,.05-.89,.16-.29,.11-.55,.25-.78,.43-.08,.2-.13,.4-.15,.61-.02,.21-.03,.44-.03,.69"/>
            <path class="cls-2" d="M182.16,343.57c0,.97-.29,1.73-.86,2.27-.57,.54-1.38,.82-2.43,.82-.97,0-1.83-.24-2.57-.73l.57-.95c.31,.16,.62,.3,.95,.41,.32,.11,.69,.16,1.08,.16,.65,0,1.15-.17,1.52-.52,.37-.35,.55-.81,.55-1.38v-.41h-1.4c-1.01,0-1.8-.28-2.35-.84-.56-.56-.83-1.36-.83-2.42,0-1.12,.35-2.01,1.07-2.67,.71-.66,1.66-.99,2.85-.99h1.87v5.8h1.17s.07,.02,.07,.06v.99s-.02,.07-.07,.07h-1.17v.34Zm-1.21-1.46v-4.7h-.61c-.85,0-1.5,.22-1.98,.67-.47,.45-.71,1.07-.71,1.87,0,.74,.16,1.29,.48,1.63,.32,.35,.81,.52,1.47,.52h1.35Z"/>
            <path class="cls-2" d="M185.77,342.12c.05,0,.08,.02,.08,.06v.99s-.02,.07-.08,.07h-2.58s-.07-.02-.07-.07v-.99s.02-.06,.07-.06h2.58Z"/>
            <path class="cls-2" d="M188.21,342.12c.05,0,.08,.02,.08,.06v.99s-.02,.07-.08,.07h-2.58s-.07-.02-.07-.07v-.99s.02-.06,.07-.06h2.58Z"/>
            <path class="cls-2" d="M190.65,342.12c.05,0,.08,.02,.08,.06v.99s-.02,.07-.08,.07h-2.58s-.07-.02-.07-.07v-.99s.02-.06,.07-.06h2.58Z"/>
            <path class="cls-2" d="M193.09,342.12c.05,0,.08,.02,.08,.06v.99s-.02,.07-.08,.07h-2.58s-.07-.02-.07-.07v-.99s.02-.06,.07-.06h2.58Z"/>
            <path class="cls-2" d="M195.53,342.12c.05,0,.08,.02,.08,.06v.99s-.02,.07-.08,.07h-2.58s-.07-.02-.07-.07v-.99s.02-.06,.07-.06h2.58Z"/>
            <path class="cls-2" d="M195.39,343.23s-.07-.02-.07-.07v-.99s.02-.06,.07-.06h1.88v-9.73h1.27v9.73h1.86s.07,.02,.07,.06v.99s-.02,.07-.07,.07h-5.01Z"/>
            <path class="cls-2" d="M200.25,343.23s-.07-.02-.07-.07v-.99s.02-.06,.07-.06h2.19c-.3-.26-.55-.61-.73-1.05-.19-.45-.28-.94-.28-1.48,0-1.07,.31-1.91,.92-2.51,.62-.6,1.44-.9,2.47-.9,.41,0,.79,.04,1.13,.12,.35,.08,.63,.18,.85,.3l-.38,1.07c-.59-.25-1.15-.37-1.67-.37-1.35,0-2.03,.79-2.03,2.36,0,.74,.16,1.34,.49,1.79,.32,.46,.75,.69,1.27,.69h2.54v1.11h-6.78Z"/>
            <path class="cls-2" d="M211.17,346.66c-.97,0-1.83-.24-2.57-.73l.57-.95c.31,.16,.62,.3,.95,.41,.32,.11,.69,.16,1.08,.16,.65,0,1.15-.17,1.52-.52,.37-.35,.55-.81,.55-1.38v-.41h-1.4c-1.01,0-1.8-.28-2.35-.84-.56-.56-.83-1.36-.83-2.42,0-1.12,.35-2.01,1.07-2.67,.71-.66,1.66-.99,2.85-.99h1.87v7.26c0,.97-.29,1.73-.86,2.27-.57,.54-1.38,.82-2.43,.82m2.08-4.54v-4.7h-.61c-.85,0-1.5,.22-1.98,.67-.47,.45-.71,1.07-.71,1.87,0,.74,.16,1.29,.48,1.63,.32,.35,.81,.52,1.47,.52h1.35Z"/>
            <path class="cls-2" d="M223.67,343.23c-.68,0-1.02,.35-1.02,1.05v3.52h-1.2v-3.74c0-.41,.08-.76,.23-1.05,.15-.29,.36-.51,.62-.66,.26-.15,.56-.23,.89-.23h.1c-.35-.91-.52-1.72-.52-2.44,0-.85,.17-1.6,.51-2.27,.35-.29,.75-.52,1.21-.7,.45-.17,.92-.26,1.41-.26,.6,0,1.12,.13,1.57,.39,.45,.26,.8,.64,1.04,1.12,.24,.48,.36,1.03,.36,1.64s-.1,1.17-.3,1.68c.21,.32,.44,.54,.7,.65,.26,.12,.59,.18,.99,.18h.07s.07,.02,.07,.05v.99s-.02,.07-.07,.07h-.07c-.51,0-.94-.07-1.3-.21-.36-.14-.7-.38-1.03-.72-.3,.32-.65,.55-1.05,.7-.4,.15-.82,.23-1.26,.23h-1.94Zm.38-3.8c0,.44,.04,.88,.11,1.3,.08,.43,.22,.89,.43,1.38h1.01c.64,0,1.12-.22,1.46-.65,.34-.43,.51-1.06,.51-1.88,0-.6-.16-1.09-.49-1.47-.33-.38-.73-.57-1.19-.57-.6,0-1.16,.19-1.67,.59-.08,.2-.13,.4-.14,.61-.01,.21-.02,.44-.02,.69"/>
            <path class="cls-2" d="M230.18,343.23s-.07-.02-.07-.07v-.99s.02-.06,.07-.06h2.74v-5.8h1.27v6.92h-4.01Zm.93,2.86c-.22,0-.41-.07-.57-.2-.15-.13-.23-.35-.23-.65s.08-.52,.23-.65,.35-.2,.57-.2c.24,0,.43,.07,.58,.22,.14,.15,.22,.36,.22,.64s-.07,.49-.21,.63c-.14,.15-.33,.22-.58,.22m2.47,0c-.25,0-.44-.07-.59-.22-.14-.15-.22-.36-.22-.63s.07-.49,.21-.63c.14-.15,.34-.22,.59-.22s.45,.08,.59,.23c.14,.16,.21,.36,.21,.62s-.07,.47-.21,.62c-.14,.15-.34,.23-.59,.23"/>
            <path class="cls-2" d="M239.01,343.23v.34c0,.96-.22,1.72-.65,2.26-.44,.55-1.07,.82-1.89,.82-.45,0-.94-.13-1.46-.4l.37-.96c.23,.1,.42,.17,.57,.2,.15,.03,.31,.04,.49,.04,.43,0,.76-.17,1-.52,.24-.35,.36-.81,.36-1.38v-7.33h1.21v5.8h1.76c.05,0,.08,.02,.08,.06v.99s-.03,.07-.08,.07h-1.76Z"/>
            <path class="cls-2" d="M243.22,342.12c.05,0,.08,.02,.08,.06v.99s-.02,.07-.08,.07h-2.58s-.07-.02-.07-.07v-.99s.02-.06,.07-.06h2.58Z"/>
            <path class="cls-2" d="M245.66,342.12c.05,0,.08,.02,.08,.06v.99s-.02,.07-.08,.07h-2.58s-.07-.02-.07-.07v-.99s.02-.06,.07-.06h2.58Z"/>
            <path class="cls-2" d="M248.09,342.12c.05,0,.08,.02,.08,.06v.99s-.02,.07-.08,.07h-2.58s-.07-.02-.07-.07v-.99s.02-.06,.07-.06h2.58Z"/>
            <path class="cls-2" d="M250.53,342.12c.05,0,.08,.02,.08,.06v.99s-.02,.07-.08,.07h-2.58s-.07-.02-.07-.07v-.99s.02-.06,.07-.06h2.58Z"/>
            <path class="cls-2" d="M252.97,342.12c.05,0,.08,.02,.08,.06v.99s-.02,.07-.08,.07h-2.58s-.07-.02-.07-.07v-.99s.02-.06,.07-.06h2.58Z"/>
            <path class="cls-2" d="M255.41,342.12c.05,0,.08,.02,.08,.06v.99s-.02,.07-.08,.07h-2.58s-.07-.02-.07-.07v-.99s.02-.06,.07-.06h2.58Z"/>
            <path class="cls-2" d="M257.85,342.12c.05,0,.08,.02,.08,.06v.99s-.02,.07-.08,.07h-2.58s-.07-.02-.07-.07v-.99s.02-.06,.07-.06h2.58Z"/>
            <path class="cls-2" d="M260.29,342.12c.05,0,.08,.02,.08,.06v.99s-.02,.07-.08,.07h-2.58s-.07-.02-.07-.07v-.99s.02-.06,.07-.06h2.58Z"/>
            <path class="cls-2" d="M260.15,343.23s-.07-.02-.07-.07v-.99s.02-.06,.07-.06h6.01v-2.63c0-.71-.21-1.23-.64-1.57-.43-.33-1.09-.5-1.99-.5h-2.43v-1.16c.31-.64,.73-1.27,1.27-1.89,.54-.62,1.14-1.17,1.81-1.66,.67-.49,1.32-.85,1.95-1.09l.45,1.09c-.87,.34-1.73,.87-2.56,1.56-.84,.7-1.41,1.38-1.73,2.04h1.24c1.24,0,2.2,.26,2.85,.77,.66,.51,.99,1.24,.99,2.2v2.84h1.85c.05,0,.08,.02,.08,.06v.99s-.02,.07-.08,.07h-9.07Z"/>
            <path class="cls-2" d="M269.08,343.23s-.07-.02-.07-.07v-.99s.02-.06,.07-.06h1.88v-9.73h1.27v10.84h-3.15Z"/>
            <rect class="cls-2" x="275.09" y="332.39" width="1.27" height="10.84"/>
            <path class="cls-2" d="M286.43,346.66c-.89,0-1.59-.31-2.1-.93-.51-.62-.77-1.46-.77-2.51,0-1.14,.2-2.19,.58-3.16h1.18c-.33,.82-.49,1.85-.49,3.07,0,.77,.16,1.37,.48,1.78,.32,.42,.78,.63,1.38,.63h.7c.83,0,1.43-.19,1.82-.56,.39-.38,.58-.95,.58-1.71v-6.96h1.21v6.86c0,1.15-.29,2.02-.86,2.61-.57,.59-1.47,.88-2.7,.88h-1.02Zm.89-10.35c-.25,0-.44-.07-.59-.22-.14-.15-.22-.36-.22-.63s.07-.49,.21-.63c.14-.15,.34-.22,.59-.22s.45,.08,.59,.23c.14,.16,.21,.36,.21,.62s-.07,.47-.21,.62c-.14,.15-.34,.23-.59,.23"/>
            <path class="cls-2" d="M292.1,332.39c.05-.46,.18-.81,.4-1.08,.21-.26,.52-.39,.91-.39,.17,0,.34,.03,.52,.1,.17,.07,.34,.14,.5,.22s.31,.15,.46,.22c.15,.07,.28,.1,.4,.1,.19,0,.33-.05,.43-.15,.1-.1,.18-.26,.24-.49h.64c-.05,.45-.18,.81-.4,1.07-.21,.26-.52,.39-.91,.39-.17,0-.34-.03-.51-.1-.17-.07-.33-.14-.49-.22-.16-.08-.31-.15-.46-.21-.15-.07-.29-.1-.42-.1-.19,0-.34,.05-.43,.15-.09,.1-.17,.26-.24,.5h-.64Zm1.55,.85h1.27v9.99h-1.27v-9.99Z"/>
            <path class="cls-2" d="M299.77,343.23v.34c0,.96-.22,1.72-.65,2.26-.44,.55-1.07,.82-1.89,.82-.45,0-.94-.13-1.46-.4l.37-.96c.23,.1,.42,.17,.57,.2,.15,.03,.31,.04,.49,.04,.43,0,.76-.17,1-.52,.24-.35,.36-.81,.36-1.38v-7.33h1.21v5.8h1.76c.05,0,.08,.02,.08,.06v.99s-.03,.07-.08,.07h-1.76Z"/>
            <path class="cls-2" d="M303.98,342.12c.05,0,.08,.02,.08,.06v.99s-.02,.07-.08,.07h-2.58s-.07-.02-.07-.07v-.99s.02-.06,.07-.06h2.58Z"/>
            <path class="cls-2" d="M306.41,342.12c.05,0,.08,.02,.08,.06v.99s-.02,.07-.08,.07h-2.58s-.07-.02-.07-.07v-.99s.02-.06,.07-.06h2.58Z"/>
            <path class="cls-2" d="M308.85,342.12c.05,0,.08,.02,.08,.06v.99s-.02,.07-.08,.07h-2.58s-.07-.02-.07-.07v-.99s.02-.06,.07-.06h2.58Z"/>
            <path class="cls-2" d="M311.29,342.12c.05,0,.08,.02,.08,.06v.99s-.02,.07-.08,.07h-2.58s-.07-.02-.07-.07v-.99s.02-.06,.07-.06h2.58Z"/>
            <path class="cls-2" d="M313.73,342.12c.05,0,.08,.02,.08,.06v.99s-.02,.07-.08,.07h-2.58s-.07-.02-.07-.07v-.99s.02-.06,.07-.06h2.58Z"/>
            <path class="cls-2" d="M316.17,342.12c.05,0,.08,.02,.08,.06v.99s-.02,.07-.08,.07h-2.58s-.07-.02-.07-.07v-.99s.02-.06,.07-.06h2.58Z"/>
            <path class="cls-2" d="M318.61,342.12c.05,0,.08,.02,.08,.06v.99s-.02,.07-.08,.07h-2.58s-.07-.02-.07-.07v-.99s.02-.06,.07-.06h2.58Z"/>
            <path class="cls-2" d="M321.05,342.12c.05,0,.08,.02,.08,.06v.99s-.02,.07-.08,.07h-2.58s-.07-.02-.07-.07v-.99s.02-.06,.07-.06h2.58Z"/>
            <path class="cls-2" d="M323.49,342.12c.05,0,.08,.02,.08,.06v.99s-.02,.07-.08,.07h-2.58s-.07-.02-.07-.07v-.99s.02-.06,.07-.06h2.58Z"/>
            <path class="cls-2" d="M323.35,343.23s-.07-.02-.07-.07v-.99s.02-.06,.07-.06h2.17c-.24-.27-.43-.61-.55-1-.12-.39-.19-.78-.19-1.16,0-1.13,.35-2.03,1.06-2.68,.7-.65,1.65-.98,2.85-.98h1.87v5.8h1.51s.05,.01,.06,.04v.03s0,.99,0,.99c0,.04-.02,.06-.07,.06h-8.72Zm5.99-1.11v-4.7h-.61c-.85,0-1.51,.22-1.98,.67-.47,.45-.7,1.07-.7,1.87,0,1.43,.65,2.15,1.95,2.15h1.34Zm-2.37-7.16c-.22,0-.41-.07-.57-.2-.15-.13-.23-.35-.23-.65s.08-.52,.23-.65c.16-.13,.35-.2,.57-.2,.24,0,.43,.07,.58,.22,.14,.15,.22,.36,.22,.64s-.07,.49-.21,.63-.34,.22-.58,.22m2.47,0c-.25,0-.44-.07-.59-.22-.14-.15-.22-.36-.22-.63s.07-.49,.21-.63c.14-.15,.34-.22,.59-.22s.45,.08,.59,.23c.14,.15,.21,.36,.21,.62s-.07,.47-.21,.62c-.14,.15-.34,.23-.59,.23"/>
            <path class="cls-2" d="M331.92,343.23s-.07-.02-.07-.07v-.99s.02-.06,.07-.06h1.88v-9.73h1.27v9.73h1.86s.07,.02,.07,.06v.99s-.02,.07-.07,.07h-5.01Z"/>
            <path class="cls-2" d="M336.79,343.23s-.07-.02-.07-.07v-.99s.02-.06,.07-.06h1.88v-9.73h1.27v10.84h-3.15Z"/>
            <path class="cls-2" d="M249.99,283.18c-.69-.33-1.35-.69-2.02-1.02h-.05v-.03c-3.86-1.91-7.48-3.65-11.18-5.05-9.16-3.5-18.46-5.59-27.95-6.38-15.04-1.28-29.79,1.15-44.42,5.77-.92,.31-1.56,.59-1.97-1.1-1.35-5.57-2.76-11.13-4.14-16.67,4.37-1.38,10.37-2.27,16.01-2.83,1.02-.1,2.04-.2,3.04-.28,.43-.05,.87-.08,1.28-.1,2.14-.15,4.29-.28,6.43-.41,.41,0,.84-.03,1.25-.05,1.15-.05,2.27-.1,3.42-.13h.18c.2,0,.43-.03,.64,0,11.82-.31,23.59,.51,35.26,4.31,6.61,2.17,12.79,5.67,17.87,12.23,1.53,1.99,2.91,4.21,4.13,6.71v.02c.13,.18,.23,.38,.31,.59v.03c.69,1.38,1.3,2.83,1.92,4.39"/>
            <path class="cls-2" d="M158.26,258.69l41.29-22.96-25.71,20.55s-8.79,3.84-15.58,2.41"/>
            <path class="cls-2" d="M341.71,258.69c-1.38,5.54-2.78,11.11-4.14,16.67-.41,1.68-1.05,1.4-1.97,1.1-14.63-4.62-29.38-7.05-44.42-5.77-9.5,.79-18.79,2.88-27.95,6.38-3.7,1.4-7.33,3.14-11.18,5.06v.03h-.05c-.66,.33-1.33,.69-2.02,1.02,.61-1.56,1.23-3.01,1.91-4.39v-.03c.08-.2,.18-.41,.31-.59v-.03c1.23-2.5,2.6-4.72,4.14-6.71,5.08-6.56,11.26-10.06,17.87-12.23,11.67-3.8,23.43-4.62,35.26-4.31,.2-.03,.43,0,.64,0h.18c1.15,.03,2.27,.08,3.42,.13,.41,.03,.84,.05,1.25,.05,2.14,.13,4.29,.26,6.43,.41,.41,.03,.84,.05,1.28,.1,1,.08,2.02,.18,3.04,.28,5.64,.56,11.64,1.46,16.01,2.83"/>
            <path class="cls-2" d="M341.71,258.69l-41.29-22.96,25.71,20.55s8.79,3.84,15.58,2.41"/>
            <polygon class="cls-5" points="240.71 140.86 259 140.86 263.36 148.42 266.95 147.46 261.07 137.27 238.64 137.27 232.75 147.46 236.34 148.42 240.71 140.86"/>
            <polygon class="cls-5" points="231.01 187.31 227.42 190.9 227.42 194.26 231.01 197.84 231.01 187.31"/>
            <polygon class="cls-5" points="227.42 209.62 231.01 209.62 231.01 207.99 227.42 204.4 227.42 209.62"/>
            <polygon class="cls-5" points="231.01 216.8 227.42 216.8 227.42 228.46 229.04 231.26 232.63 230.3 231.01 227.5 231.01 216.8"/>
            <polygon class="cls-5" points="272.28 175.53 268.69 175.53 268.69 177.16 272.28 180.74 272.28 175.53"/>
            <polygon class="cls-5" points="227.42 156.69 227.42 168.35 231.01 168.35 231.01 157.65 232.63 154.85 229.04 153.89 227.42 156.69"/>
            <polygon class="cls-5" points="227.42 180.75 231.01 177.16 231.01 175.53 227.42 175.53 227.42 180.75"/>
            <polygon class="cls-5" points="268.69 197.84 272.28 194.26 272.28 190.9 268.69 187.31 268.69 197.84"/>
            <polygon class="cls-5" points="268.69 168.35 272.28 168.35 272.28 156.69 270.67 153.89 267.08 154.85 268.69 157.65 268.69 168.35"/>
            <polygon class="cls-5" points="268.69 209.62 272.28 209.62 272.28 204.41 268.69 208 268.69 209.62"/>
            <polygon class="cls-5" points="259 244.3 240.71 244.3 236.34 236.74 232.75 237.7 238.64 247.89 261.07 247.89 266.95 237.7 263.36 236.74 259 244.3"/>
            <polygon class="cls-5" points="272.28 228.46 272.28 216.8 268.69 216.8 268.69 227.5 267.08 230.3 270.67 231.26 272.28 228.46"/>
            <polygon class="cls-5" points="272.28 183.29 268.69 179.7 266.9 177.91 264.52 175.53 259.45 175.53 268.69 184.77 272.28 188.36 275.23 191.31 277.76 188.77 274.08 185.09 272.28 183.29"/>
            <polygon class="cls-5" points="242.36 216.8 246.05 220.49 248.59 217.96 247.43 216.8 242.36 216.8"/>
            <polygon class="cls-5" points="211 178.08 207.79 179.94 208.62 183.06 216.87 191.31 219.4 188.77 211.83 181.2 211 178.08"/>
            <polygon class="cls-5" points="290.63 214.25 292.89 222.69 279.96 235.61 271.53 233.35 270.63 233.12 269.73 232.88 266.15 231.92 265.25 231.68 264.35 231.43 261.23 230.6 253.66 223.03 251.13 225.57 259.37 233.81 262.49 234.65 263.39 234.89 264.29 235.13 267.88 236.09 268.78 236.33 269.67 236.57 281.03 239.62 296.89 223.75 293.85 212.4 290.63 214.25"/>
            <polygon class="cls-5" points="209.08 170.9 206.82 162.47 219.75 149.54 228.18 151.8 229.08 152.04 229.97 152.28 233.56 153.24 235.36 153.72 238.48 154.56 246.05 162.13 248.59 159.6 240.34 151.34 237.21 150.51 236.32 150.27 235.42 150.03 231.83 149.07 230.04 148.58 218.68 145.54 202.82 161.4 205.86 172.76 209.08 170.9"/>
            <polygon class="cls-5" points="257.34 168.35 253.66 164.67 251.13 167.21 252.28 168.35 257.34 168.35"/>
            <polygon class="cls-5" points="282.84 193.85 280.3 196.38 287.88 203.95 288.71 207.08 291.92 205.22 291.09 202.1 282.84 193.85"/>
            <polygon class="cls-5" points="231.01 205.45 235.19 209.62 240.25 209.62 231.01 200.38 227.42 196.79 224.48 193.85 221.94 196.38 227.42 201.86 231.01 205.45"/>
            <polygon class="cls-5" points="205.7 206.09 198.13 201.72 198.13 183.44 205.7 179.07 206.49 178.61 207.3 178.14 210.51 176.29 211.32 175.82 212.13 175.35 214.93 173.74 227.42 173.74 231.01 173.74 234.44 173.74 238.03 170.15 231.01 170.15 227.42 170.15 213.97 170.15 211.17 171.76 210.36 172.23 209.55 172.7 206.34 174.55 205.53 175.02 204.74 175.48 194.54 181.36 194.54 203.79 204.74 209.68 205.7 206.09"/>
            <polygon class="cls-5" points="294.98 175.49 294.02 179.08 301.58 183.44 301.58 201.72 294.02 206.08 293.21 206.55 292.41 207.01 289.19 208.87 288.39 209.34 287.58 209.8 284.78 211.42 272.28 211.42 268.69 211.42 265.27 211.42 261.68 215.01 268.69 215.01 272.28 215.01 285.74 215.01 288.54 213.39 289.35 212.93 290.15 212.46 293.37 210.6 294.17 210.14 294.98 209.67 305.16 203.79 305.16 181.36 294.98 175.49"/>
            <polygon class="cls-5" points="245.64 215.01 251.53 215.01 255.12 211.42 242.05 211.42 236.98 211.42 231.01 211.42 227.42 211.42 214.93 211.42 212.13 209.8 211.17 213.39 213.97 215.01 227.42 215.01 231.01 215.01 240.57 215.01 245.64 215.01"/>
            <polygon class="cls-5" points="262.73 173.74 268.69 173.74 272.28 173.74 284.78 173.74 287.58 175.35 288.54 171.76 285.74 170.15 272.28 170.15 268.69 170.15 259.14 170.15 254.07 170.15 248.18 170.15 244.59 173.74 257.66 173.74 262.73 173.74"/>
            <path class="cls-5" d="M236.32,234.89l.9-.24,3.12-.83,8.25-8.24,.63-.64,.64-.64,2.54-2.53,.63-.64,.64-.64,3.69-3.69,1.8-1.79,3.59-3.59,1.79-1.79,2.38-2.38,1.79-1.79,3.59-3.59,6.12-6.12,.64-.63,2.53-2.54,1.27-1.27,8.24-8.25,.83-3.12,.24-.9,.24-.9,.96-3.59,.24-.9,.24-.9,3.04-11.36-15.86-15.86-11.36,3.04-1.79,.48-3.59,.96-.9,.24-.9,.24-3.12,.83-8.24,8.24-.64,.64-.64,.64-2.53,2.54-.64,.63-.64,.64-5.48,5.48-3.59,3.59-.9,.9-.9,.9-2.38,2.38-1.79,1.79-3.59,3.59-1.79,1.79-3.69,3.69-.64,.64-.63,.64-2.54,2.53-.64,.64-.63,.64-8.25,8.24-.83,3.12-.24,.9-.24,.9-.96,3.59-.24,.9-.24,.9-3.04,11.36,15.86,15.86,11.36-3.04,.9-.24,.9-.24,3.59-.96,.9-.24Zm-6.34-2.01l-.9,.24-.9,.23-8.43,2.26-12.93-12.93,2.26-8.43,.23-.9,.24-.9,.96-3.59,.24-.9,.24-.9,.83-3.12,7.57-7.57,.64-.63,.64-.64,2.53-2.54,.64-.63,.64-.64,1.15-1.16,1.79-1.79,3.59-3.59,9.24-9.24,.9-.9,.9-.9,3.59-3.59,1.8-1.8,1.16-1.15,.64-.64,.63-.64,2.54-2.53,.64-.64,.63-.64,7.57-7.57,3.12-.83,1.79-.49,3.59-.96,.9-.24,.9-.23,8.43-2.26,12.93,12.93-2.26,8.43-.23,.9-.24,.9-.96,3.59-.24,.9-.24,.9-.83,3.12-7.57,7.57-.63,.64-.64,.64-2.54,2.53-.63,.64-.64,.64-1.16,1.15-1.79,1.79-3.59,3.59-1.79,1.79-7.45,7.45-1.79,1.79-3.59,3.59-1.79,1.79-1.15,1.16-.64,.64-.64,.63-2.53,2.54-.64,.64-.64,.63-7.57,7.57-3.12,.84-.9,.24-.9,.24-3.59,.96Z"/>
            <polygon class="cls-2" points="222.21 144.64 231.03 147 235.62 139.12 222.21 144.64"/>
            <polygon class="cls-2" points="196.48 178.26 204.38 173.69 202.06 164.88 196.48 178.26"/>
            <polygon class="cls-2" points="202.05 220.23 204.41 211.41 196.54 206.82 202.05 220.23"/>
            <polygon class="cls-2" points="235.67 245.96 231.11 238.06 222.29 240.38 235.67 245.96"/>
            <polygon class="cls-2" points="277.64 240.39 268.82 238.03 264.23 245.9 277.64 240.39"/>
            <polygon class="cls-2" points="303.37 206.77 295.47 211.33 297.79 220.15 303.37 206.77"/>
            <polygon class="cls-2" points="297.8 164.8 295.44 173.61 303.31 178.21 297.8 164.8"/>
            <polygon class="cls-2" points="264.18 139.06 268.75 146.97 277.56 144.65 264.18 139.06"/>
            <polygon class="cls-2" points="255.95 177.97 243.9 177.97 235.39 186.49 235.39 198.54 243.9 207.05 255.95 207.05 264.47 198.54 264.47 186.49 255.95 177.97"/>
            <path class="cls-1" d="M249.99,283.18c-1.71-3.86-4.02-7.46-6.88-10.55-2.84-3.13-6.29-5.65-9.98-7.69-3.69-2.03-7.63-3.61-11.68-4.78-4.06-1.14-8.21-1.94-12.39-2.48-8.37-1.03-16.85-1.07-25.26-.47-8.41,.62-16.8,1.78-25.01,3.64l-.18-.73c8.29-1.81,16.7-2.91,25.14-3.47,8.44-.54,16.95-.43,25.34,.66,4.19,.58,8.35,1.41,12.42,2.59,4.06,1.2,8,2.82,11.69,4.89,3.68,2.07,7.13,4.63,9.96,7.79,2.85,3.13,5.13,6.74,6.81,10.62"/>
            <path class="cls-1" d="M159.24,262.62c8.04-1.79,16.19-2.89,24.39-3.48,8.19-.59,16.44-.54,24.61,.38,8.14,1,16.27,2.87,23.63,6.58,3.67,1.83,7.15,4.1,10.12,6.94,2.99,2.81,5.51,6.1,7.48,9.7-2-3.59-4.54-6.85-7.54-9.63-2.99-2.81-6.47-5.05-10.14-6.85-7.35-3.65-15.47-5.45-23.58-6.38-8.15-.85-16.37-.84-24.53-.19-8.16,.65-16.29,1.82-24.25,3.65l-.18-.73Z"/>
            <path class="cls-1" d="M249.47,282.75l-.4-.62h0s-.33-.53-.33-.53h0s-.02-.02-.02-.02h0c-4.42-6.62-11.03-11.57-18.35-14.57-7.33-3.03-15.21-4.53-23.1-5.14-7.9-.64-15.85-.37-23.73,.37-7.88,.78-15.73,2.03-23.42,3.89l-.18-.73c7.76-1.82,15.63-3,23.55-3.73,7.92-.68,15.89-.89,23.82-.19,7.91,.67,15.81,2.24,23.14,5.34,7.32,3.07,13.91,8.09,18.28,14.75h0s.02,.02,.02,.02h0s.33,.53,.33,.53l.4,.62Z"/>
            <path class="cls-1" d="M249.99,283.18c-2.46-3.11-5.24-6.01-8.5-8.3-3.22-2.33-6.74-4.22-10.41-5.72-3.67-1.52-7.5-2.61-11.39-3.42-3.88-.81-7.82-1.36-11.78-1.67-7.92-.59-15.88-.38-23.78,.4-7.89,.8-15.76,2.08-23.45,3.99l-.18-.73c7.76-1.86,15.65-3.08,23.58-3.82,7.93-.72,15.92-.87,23.86-.21,3.97,.34,7.92,.92,11.81,1.77,3.89,.85,7.73,1.97,11.4,3.52,3.67,1.54,7.19,3.46,10.4,5.82,3.24,2.32,6,5.24,8.44,8.38"/>
            <path class="cls-1" d="M161.22,270.77c7.61-1.91,15.33-3.2,23.1-4.06,7.77-.85,15.61-1.16,23.42-.74,7.79,.48,15.61,1.66,22.98,4.33,7.38,2.55,14.21,6.89,19.26,12.87-5.1-5.94-11.94-10.21-19.32-12.69-7.36-2.6-15.16-3.71-22.93-4.13-7.79-.36-15.6,.01-23.34,.92-7.74,.92-15.44,2.27-22.97,4.22l-.2-.72Z"/>
            <path class="cls-1" d="M162.02,273.96c7.34-2.28,14.86-3.85,22.46-4.89,7.6-1.02,15.28-1.41,22.94-1,3.83,.19,7.64,.65,11.41,1.31,3.77,.68,7.51,1.57,11.13,2.82,3.62,1.24,7.16,2.73,10.53,4.56,3.35,1.85,6.53,4.01,9.5,6.42-2.99-2.39-6.19-4.51-9.54-6.33-3.37-1.8-6.92-3.26-10.54-4.46-3.62-1.22-7.36-2.07-11.12-2.72-3.77-.64-7.57-1.06-11.38-1.22-7.63-.34-15.29,.11-22.84,1.19-7.55,1.09-15.04,2.73-22.3,5.05l-.23-.71Z"/>
            <path class="cls-1" d="M249.99,283.18c1.68-3.88,3.96-7.49,6.81-10.62,2.83-3.16,6.27-5.72,9.95-7.79,3.69-2.07,7.63-3.68,11.69-4.89,4.07-1.18,8.23-2.01,12.42-2.59,8.4-1.09,16.9-1.2,25.35-.66,8.45,.56,16.85,1.66,25.14,3.47l-.18,.73c-8.21-1.85-16.6-3.02-25.01-3.64-8.41-.6-16.89-.56-25.26,.47-4.18,.54-8.33,1.34-12.39,2.48-4.05,1.17-7.99,2.75-11.68,4.78-3.68,2.03-7.14,4.56-9.98,7.69-2.87,3.1-5.17,6.69-6.88,10.55"/>
            <path class="cls-1" d="M340.55,263.35c-7.96-1.83-16.1-3-24.25-3.65-8.16-.65-16.38-.66-24.52,.19-8.11,.93-16.23,2.73-23.58,6.38-3.67,1.8-7.16,4.04-10.14,6.85-3.01,2.78-5.55,6.05-7.55,9.63,1.97-3.6,4.49-6.89,7.48-9.7,2.97-2.84,6.45-5.11,10.12-6.95,7.35-3.72,15.49-5.58,23.62-6.58,8.17-.92,16.42-.97,24.61-.38,8.19,.6,16.35,1.7,24.39,3.49l-.18,.73Z"/>
            <path class="cls-1" d="M250.5,282.75l.37-.58,.32-.51h0s.03-.03,.03-.03h0c4.36-6.67,10.95-11.7,18.27-14.77,7.33-3.11,15.24-4.68,23.15-5.35,7.93-.71,15.91-.5,23.83,.18,7.92,.72,15.8,1.91,23.56,3.73l-.18,.73c-7.69-1.86-15.55-3.11-23.43-3.89-7.89-.74-15.84-1.01-23.75-.37-7.89,.61-15.77,2.12-23.11,5.16-7.32,3.01-13.92,7.97-18.34,14.6h0s-.03,.03-.03,.03h0s-.32,.51-.32,.51l-.37,.58Z"/>
            <path class="cls-1" d="M249.99,283.18c2.44-3.13,5.19-6.06,8.44-8.38,3.21-2.36,6.72-4.28,10.39-5.81,3.67-1.55,7.51-2.68,11.39-3.53,3.89-.85,7.84-1.43,11.81-1.77,7.94-.65,15.93-.51,23.86,.21,7.93,.74,15.81,1.96,23.57,3.82l-.18,.73c-7.69-1.91-15.55-3.19-23.44-3.99-7.9-.78-15.86-.99-23.78-.4-3.96,.31-7.89,.86-11.78,1.67-3.88,.81-7.72,1.9-11.38,3.42-3.67,1.5-7.19,3.39-10.41,5.72-3.26,2.29-6.03,5.19-8.49,8.3"/>
            <path class="cls-1" d="M249.99,283.18c2.56-2.95,5.46-5.6,8.74-7.74,3.29-2.12,6.84-3.8,10.51-5.13,1.83-.69,3.72-1.21,5.6-1.75,1.9-.45,3.8-.91,5.73-1.23,3.85-.68,7.74-1.14,11.64-1.35,7.81-.43,15.64-.12,23.42,.73,7.77,.86,15.49,2.15,23.1,4.05l-.2,.72c-7.52-1.95-15.23-3.31-22.96-4.22-7.74-.91-15.55-1.28-23.33-.91-3.89,.17-7.77,.6-11.61,1.25-1.93,.3-3.82,.75-5.72,1.18-1.88,.52-3.76,1.02-5.59,1.7-3.67,1.3-7.23,2.94-10.52,5.03-3.28,2.12-6.21,4.74-8.79,7.66"/>
            <path class="cls-1" d="M249.99,283.18c2.97-2.41,6.15-4.56,9.5-6.42,3.36-1.83,6.9-3.32,10.53-4.56,3.62-1.25,7.36-2.14,11.13-2.82,3.77-.67,7.59-1.12,11.41-1.31,7.66-.41,15.34-.01,22.94,1,7.59,1.04,15.12,2.61,22.46,4.89l-.23,.71c-7.26-2.32-14.75-3.95-22.3-5.05-7.56-1.07-15.21-1.53-22.84-1.19-3.82,.16-7.62,.58-11.38,1.22-3.76,.65-7.5,1.5-11.12,2.72-3.62,1.21-7.17,2.66-10.54,4.46-3.36,1.82-6.55,3.95-9.54,6.33"/>
            <polygon class="cls-6" points="161.6 350.85 162.47 350.85 162.47 356.88 165.36 356.88 165.36 357.61 161.6 357.61 161.6 350.85"/>
            <rect class="cls-6" x="166.33" y="350.85" width=".87" height="6.75"/>
            <path class="cls-6" d="M168.73,350.95c.38-.08,.98-.14,1.59-.14,.87,0,1.43,.15,1.85,.49,.35,.26,.56,.66,.56,1.19,0,.65-.43,1.22-1.14,1.48v.02c.64,.16,1.39,.69,1.39,1.69,0,.58-.23,1.02-.57,1.35-.47,.43-1.23,.63-2.33,.63-.6,0-1.06-.04-1.35-.08v-6.64Zm.87,2.76h.79c.92,0,1.46-.48,1.46-1.13,0-.79-.6-1.1-1.48-1.1-.4,0-.63,.03-.77,.06v2.18Zm0,3.24c.17,.03,.42,.04,.73,.04,.9,0,1.73-.33,1.73-1.31,0-.92-.79-1.3-1.74-1.3h-.72v2.57Z"/>
            <path class="cls-6" d="M175.51,357.61v-2.87l-2.13-3.89h.99l.95,1.86c.26,.51,.46,.92,.67,1.39h.02c.19-.44,.42-.88,.68-1.39l.97-1.86h.99l-2.26,3.88v2.88h-.88Z"/>
            <path class="cls-6" d="M179.71,355.48l-.7,2.12h-.9l2.29-6.75h1.05l2.31,6.75h-.93l-.72-2.12h-2.4Zm2.21-.68l-.66-1.94c-.15-.44-.25-.84-.35-1.23h-.02c-.1,.4-.21,.81-.34,1.22l-.66,1.95h2.03Z"/>
            <path class="cls-6" d="M184.76,357.61v-6.75h.95l2.16,3.42c.5,.79,.89,1.5,1.21,2.19h.02c-.08-.91-.1-1.73-.1-2.79v-2.82h.82v6.75h-.88l-2.14-3.43c-.47-.75-.92-1.52-1.26-2.26h-.03c.05,.86,.07,1.67,.07,2.8v2.88h-.82Z"/>
            <path class="cls-6" d="M199.17,354.64c-.05-.94-.11-2.07-.1-2.92h-.03c-.23,.79-.51,1.63-.85,2.56l-1.19,3.28h-.66l-1.09-3.22c-.32-.95-.59-1.82-.78-2.62h-.02c-.02,.84-.07,1.97-.13,2.99l-.18,2.9h-.83l.47-6.75h1.11l1.15,3.27c.28,.83,.51,1.57,.68,2.27h.03c.17-.68,.41-1.42,.71-2.27l1.2-3.27h1.11l.42,6.75h-.85l-.17-2.97Z"/>
            <path class="cls-6" d="M202.53,355.48l-.7,2.12h-.9l2.29-6.75h1.05l2.31,6.75h-.93l-.72-2.12h-2.4Zm2.22-.68l-.66-1.94c-.15-.44-.25-.84-.35-1.23h-.02c-.1,.4-.21,.81-.34,1.22l-.66,1.95h2.03Z"/>
            <path class="cls-6" d="M212.99,358.6c-.91-.24-1.8-.51-2.59-.78-.14-.05-.28-.1-.41-.1-1.6-.06-2.98-1.24-2.98-3.42s1.32-3.56,3.15-3.56,3.02,1.42,3.02,3.42c0,1.73-.8,2.85-1.92,3.24v.04c.67,.17,1.4,.33,1.97,.43l-.25,.73Zm-.72-4.4c0-1.35-.7-2.74-2.13-2.74s-2.2,1.36-2.18,2.82c-.01,1.43,.78,2.73,2.14,2.73s2.18-1.26,2.18-2.81"/>
            <path class="cls-6" d="M214.33,350.94c.44-.09,1.07-.14,1.67-.14,.93,0,1.53,.17,1.95,.55,.34,.3,.53,.76,.53,1.28,0,.89-.56,1.48-1.27,1.72v.03c.52,.18,.83,.66,.99,1.36,.22,.94,.38,1.59,.52,1.85h-.9c-.11-.19-.26-.77-.45-1.61-.2-.93-.56-1.28-1.35-1.31h-.82v2.93h-.87v-6.66Zm.87,3.08h.89c.93,0,1.52-.51,1.52-1.28,0-.87-.63-1.25-1.55-1.26-.42,0-.72,.04-.86,.08v2.46Z"/>
            <path class="cls-6" d="M220.86,355.48l-.7,2.12h-.9l2.29-6.75h1.05l2.31,6.75h-.93l-.72-2.12h-2.4Zm2.21-.68l-.66-1.94c-.15-.44-.25-.84-.35-1.23h-.02c-.1,.4-.21,.81-.34,1.22l-.66,1.95h2.03Z"/>
            <path class="cls-6" d="M226.5,350.74c-.23,.84-.66,1.91-.94,2.37l-.56,.07c.22-.59,.48-1.63,.59-2.35l.91-.09Z"/>
            <path class="cls-6" d="M227.68,355.48l-.7,2.12h-.9l2.29-6.75h1.05l2.31,6.75h-.93l-.72-2.12h-2.4Zm2.21-.68l-.66-1.94c-.15-.44-.25-.84-.35-1.23h-.02c-.1,.4-.21,.81-.34,1.22l-.66,1.95h2.03Z"/>
            <polygon class="cls-6" points="233.6 350.85 233.6 353.68 236.86 353.68 236.86 350.85 237.74 350.85 237.74 357.61 236.86 357.61 236.86 354.44 233.6 354.44 233.6 357.61 232.72 357.61 232.72 350.85 233.6 350.85"/>
            <polygon class="cls-6" points="241.38 350.85 245.02 350.85 245.02 351.59 242.26 351.59 242.26 353.83 244.81 353.83 244.81 354.55 242.26 354.55 242.26 357.61 241.38 357.61 241.38 350.85"/>
            <path class="cls-6" d="M252.04,354.16c0,2.32-1.41,3.56-3.14,3.56s-3.04-1.38-3.04-3.43c0-2.14,1.33-3.55,3.14-3.55s3.04,1.41,3.04,3.42m-5.24,.11c0,1.44,.78,2.74,2.15,2.74s2.16-1.27,2.16-2.8c0-1.34-.7-2.74-2.15-2.74s-2.16,1.33-2.16,2.81"/>
            <path class="cls-6" d="M253.17,350.94c.44-.09,1.07-.14,1.67-.14,.93,0,1.53,.17,1.95,.55,.34,.3,.53,.76,.53,1.28,0,.89-.56,1.48-1.27,1.72v.03c.52,.18,.83,.66,.99,1.36,.22,.94,.38,1.59,.52,1.85h-.9c-.11-.19-.26-.77-.45-1.61-.2-.93-.56-1.28-1.35-1.31h-.82v2.93h-.87v-6.66Zm.87,3.08h.89c.93,0,1.52-.51,1.52-1.28,0-.87-.63-1.25-1.55-1.26-.42,0-.72,.04-.86,.08v2.46Z"/>
            <path class="cls-6" d="M266.26,358.6c-.91-.24-1.8-.51-2.59-.78-.14-.05-.28-.1-.41-.1-1.6-.06-2.98-1.24-2.98-3.42s1.32-3.56,3.15-3.56,3.03,1.42,3.03,3.42c0,1.73-.8,2.85-1.92,3.24v.04c.67,.17,1.4,.33,1.98,.43l-.25,.73Zm-.72-4.4c0-1.35-.7-2.74-2.13-2.74s-2.19,1.36-2.18,2.82c-.01,1.43,.78,2.73,2.14,2.73s2.17-1.26,2.17-2.81"/>
            <path class="cls-6" d="M268.47,350.85v4c0,1.51,.67,2.15,1.57,2.15,1,0,1.64-.66,1.64-2.15v-4h.88v3.94c0,2.07-1.09,2.93-2.55,2.93-1.38,0-2.43-.79-2.43-2.88v-3.98h.88Z"/>
            <path class="cls-6" d="M274.08,350.94c.44-.09,1.07-.14,1.67-.14,.93,0,1.53,.17,1.95,.55,.34,.3,.53,.76,.53,1.28,0,.89-.56,1.48-1.27,1.72v.03c.52,.18,.83,.66,.99,1.36,.22,.94,.38,1.59,.52,1.85h-.9c-.11-.19-.26-.77-.45-1.61-.2-.93-.56-1.28-1.35-1.31h-.82v2.93h-.87v-6.66Zm.87,3.08h.89c.93,0,1.52-.51,1.52-1.28,0-.87-.63-1.25-1.55-1.26-.42,0-.72,.04-.86,.08v2.46Z"/>
            <path class="cls-6" d="M280.62,355.48l-.7,2.12h-.9l2.3-6.75h1.05l2.3,6.75h-.93l-.72-2.12h-2.4Zm2.21-.68l-.66-1.94c-.15-.44-.25-.84-.35-1.23h-.02c-.1,.4-.21,.81-.34,1.22l-.66,1.95h2.03Z"/>
            <path class="cls-6" d="M285.66,357.61v-6.75h.95l2.16,3.42c.5,.79,.89,1.5,1.21,2.19h.02c-.08-.91-.1-1.73-.1-2.79v-2.82h.82v6.75h-.88l-2.14-3.43c-.47-.75-.92-1.52-1.26-2.26h-.03c.05,.86,.07,1.67,.07,2.8v2.88h-.82Z"/>
            <rect class="cls-6" x="292.26" y="350.85" width=".87" height="6.75"/>
            <path class="cls-6" d="M299.37,357.39c-.32,.16-.96,.32-1.78,.32-1.9,0-3.34-1.2-3.34-3.42s1.43-3.55,3.53-3.55c.84,0,1.37,.18,1.6,.3l-.21,.71c-.33-.16-.8-.28-1.36-.28-1.58,0-2.64,1.01-2.64,2.79,0,1.65,.95,2.71,2.6,2.71,.53,0,1.07-.11,1.42-.28l.18,.69Z"/>
            <path class="cls-6" d="M302.47,356.55c.39,.24,.96,.44,1.56,.44,.89,0,1.41-.47,1.41-1.15,0-.63-.36-.99-1.27-1.34-1.1-.39-1.78-.96-1.78-1.91,0-1.05,.87-1.83,2.18-1.83,.69,0,1.19,.16,1.49,.33l-.24,.71c-.22-.12-.67-.32-1.28-.32-.92,0-1.27,.55-1.27,1.01,0,.63,.41,.94,1.34,1.3,1.14,.44,1.72,.99,1.72,1.98,0,1.04-.77,1.94-2.36,1.94-.65,0-1.36-.19-1.72-.43l.22-.73Z"/>
            <path class="cls-6" d="M312.26,357.39c-.32,.16-.96,.32-1.78,.32-1.9,0-3.34-1.2-3.34-3.42s1.43-3.55,3.53-3.55c.84,0,1.37,.18,1.6,.3l-.21,.71c-.33-.16-.8-.28-1.36-.28-1.58,0-2.64,1.01-2.64,2.79,0,1.65,.95,2.71,2.6,2.71,.53,0,1.07-.11,1.42-.28l.18,.69Z"/>
            <rect class="cls-6" x="313.35" y="350.85" width=".87" height="6.75"/>
            <polygon class="cls-6" points="319.24 354.44 316.62 354.44 316.62 356.88 319.55 356.88 319.55 357.61 315.75 357.61 315.75 350.85 319.39 350.85 319.39 351.59 316.62 351.59 316.62 353.72 319.24 353.72 319.24 354.44"/>
            <path class="cls-6" d="M320.68,357.61v-6.75h.95l2.16,3.42c.5,.79,.89,1.5,1.21,2.19h.02c-.08-.91-.1-1.73-.1-2.79v-2.82h.82v6.75h-.88l-2.14-3.43c-.47-.75-.92-1.52-1.26-2.26h-.03c.05,.86,.07,1.67,.07,2.8v2.88h-.82Z"/>
            <path class="cls-6" d="M332,357.39c-.32,.16-.96,.32-1.78,.32-1.9,0-3.34-1.2-3.34-3.42s1.43-3.55,3.53-3.55c.84,0,1.37,.18,1.6,.3l-.21,.71c-.33-.16-.8-.28-1.36-.28-1.58,0-2.64,1.01-2.64,2.79,0,1.65,.95,2.71,2.59,2.71,.53,0,1.07-.11,1.42-.28l.18,.69Z"/>
            <polygon class="cls-6" points="336.59 354.44 333.96 354.44 333.96 356.88 336.89 356.88 336.89 357.61 333.09 357.61 333.09 350.85 336.74 350.85 336.74 351.59 333.96 351.59 333.96 353.72 336.59 353.72 336.59 354.44"/>
            <path class="cls-6" d="M337.9,356.55c.39,.24,.96,.44,1.56,.44,.89,0,1.41-.47,1.41-1.15,0-.63-.36-.99-1.27-1.34-1.1-.39-1.78-.96-1.78-1.91,0-1.05,.87-1.83,2.18-1.83,.69,0,1.19,.16,1.49,.33l-.24,.71c-.22-.12-.67-.32-1.28-.32-.92,0-1.27,.55-1.27,1.01,0,.63,.41,.94,1.34,1.3,1.14,.44,1.72,.99,1.72,1.98,0,1.04-.77,1.94-2.36,1.94-.65,0-1.36-.19-1.72-.43l.22-.73Z"/>
        </g>
    </g>
</svg>
